<?xml version="1.0" encoding="UTF-8" standalone="no"?>
<!-- Created with Inkscape (http://www.inkscape.org/) -->

<svg
   width="297mm"
   height="210mm"
   viewBox="0 0 297 210"
   version="1.1"
   id="svg5"
   inkscape:version="1.1 (c68e22c387, 2021-05-23)"
   sodipodi:docname="Sonata LOGO.svg"
   xmlns:inkscape="http://www.inkscape.org/namespaces/inkscape"
   xmlns:sodipodi="http://sodipodi.sourceforge.net/DTD/sodipodi-0.dtd"
   xmlns="http://www.w3.org/2000/svg"
   xmlns:svg="http://www.w3.org/2000/svg">
  <sodipodi:namedview
     id="namedview7"
     pagecolor="#505050"
     bordercolor="#eeeeee"
     borderopacity="1"
     inkscape:pageshadow="0"
     inkscape:pageopacity="0"
     inkscape:pagecheckerboard="0"
     inkscape:document-units="mm"
     showgrid="false"
     inkscape:zoom="0.70710678"
     inkscape:cx="575.58492"
     inkscape:cy="405.87929"
     inkscape:window-width="1920"
     inkscape:window-height="986"
     inkscape:window-x="-11"
     inkscape:window-y="-11"
     inkscape:window-maximized="1"
     inkscape:current-layer="layer1"
     units="mm">
    <inkscape:grid
       type="xygrid"
       id="grid31830" />
  </sodipodi:namedview>
  <defs
     id="defs2">
    <inkscape:path-effect
       effect="spiro"
       id="path-effect38397"
       is_visible="true"
       lpeversion="1" />
    <inkscape:path-effect
       effect="spiro"
       id="path-effect38252"
       is_visible="true"
       lpeversion="1" />
    <inkscape:path-effect
       effect="spiro"
       id="path-effect34984"
       is_visible="true"
       lpeversion="1" />
    <inkscape:path-effect
       effect="spiro"
       id="path-effect34751"
       is_visible="true"
       lpeversion="1" />
    <inkscape:path-effect
       effect="spiro"
       id="path-effect34714"
       is_visible="true"
       lpeversion="1" />
    <inkscape:path-effect
       effect="skeletal"
       id="path-effect32263"
       is_visible="true"
       lpeversion="1"
       pattern="M 0,4.9921382 C 0,2.2364779 2.2364779,0 4.9921382,0 c 2.7556604,0 4.9921383,2.2364779 4.9921383,4.9921382 0,2.7556604 -2.2364779,4.9921383 -4.9921383,4.9921383 C 2.2364779,9.9842765 0,7.7477986 0,4.9921382 Z"
       copytype="single_stretched"
       prop_scale="1"
       scale_y_rel="false"
       spacing="0"
       normal_offset="0"
       tang_offset="0"
       prop_units="false"
       vertical_pattern="false"
       hide_knot="false"
       fuse_tolerance="0" />
    <inkscape:path-effect
       effect="simplify"
       id="path-effect32255"
       is_visible="true"
       lpeversion="1"
       steps="1"
       threshold="0.000408163"
       smooth_angles="360"
       helper_size="0"
       simplify_individual_paths="false"
       simplify_just_coalesce="false" />
    <inkscape:path-effect
       effect="simplify"
       id="path-effect32249"
       is_visible="true"
       lpeversion="1"
       steps="1"
       threshold="0.000408163"
       smooth_angles="360"
       helper_size="0"
       simplify_individual_paths="false"
       simplify_just_coalesce="false" />
    <inkscape:path-effect
       effect="spiro"
       id="path-effect32157"
       is_visible="true"
       lpeversion="1" />
    <inkscape:path-effect
       effect="spiro"
       id="path-effect30839"
       is_visible="true"
       lpeversion="1" />
    <inkscape:path-effect
       effect="spiro"
       id="path-effect30835"
       is_visible="true"
       lpeversion="1" />
    <inkscape:path-effect
       effect="spiro"
       id="path-effect30297"
       is_visible="true"
       lpeversion="1" />
    <inkscape:path-effect
       effect="spiro"
       id="path-effect25496"
       is_visible="true"
       lpeversion="1" />
    <inkscape:path-effect
       effect="spiro"
       id="path-effect25283"
       is_visible="true"
       lpeversion="1" />
    <inkscape:path-effect
       effect="spiro"
       id="path-effect25109"
       is_visible="true"
       lpeversion="1" />
    <inkscape:path-effect
       effect="spiro"
       id="path-effect25000"
       is_visible="true"
       lpeversion="1" />
    <inkscape:path-effect
       effect="spiro"
       id="path-effect24873"
       is_visible="true"
       lpeversion="1" />
    <inkscape:path-effect
       effect="spiro"
       id="path-effect24865"
       is_visible="true"
       lpeversion="1" />
    <inkscape:path-effect
       effect="spiro"
       id="path-effect24753"
       is_visible="true"
       lpeversion="1" />
    <inkscape:path-effect
       effect="spiro"
       id="path-effect22614"
       is_visible="true"
       lpeversion="1" />
    <inkscape:path-effect
       effect="spiro"
       id="path-effect21838"
       is_visible="true"
       lpeversion="1" />
    <inkscape:path-effect
       effect="spiro"
       id="path-effect21549"
       is_visible="true"
       lpeversion="1" />
    <inkscape:path-effect
       effect="spiro"
       id="path-effect21545"
       is_visible="true"
       lpeversion="1" />
    <inkscape:path-effect
       effect="spiro"
       id="path-effect21541"
       is_visible="true"
       lpeversion="1" />
    <inkscape:path-effect
       effect="spiro"
       id="path-effect21537"
       is_visible="true"
       lpeversion="1" />
    <inkscape:path-effect
       effect="spiro"
       id="path-effect21533"
       is_visible="true"
       lpeversion="1" />
    <inkscape:path-effect
       effect="spiro"
       id="path-effect21529"
       is_visible="true"
       lpeversion="1" />
    <inkscape:path-effect
       effect="spiro"
       id="path-effect21525"
       is_visible="true"
       lpeversion="1" />
    <inkscape:path-effect
       effect="spiro"
       id="path-effect21521"
       is_visible="true"
       lpeversion="1" />
    <inkscape:path-effect
       effect="spiro"
       id="path-effect20650"
       is_visible="true"
       lpeversion="1" />
    <inkscape:path-effect
       effect="spiro"
       id="path-effect20646"
       is_visible="true"
       lpeversion="1" />
    <inkscape:path-effect
       effect="spiro"
       id="path-effect20642"
       is_visible="true"
       lpeversion="1" />
    <inkscape:path-effect
       effect="spiro"
       id="path-effect20638"
       is_visible="true"
       lpeversion="1" />
    <inkscape:path-effect
       effect="spiro"
       id="path-effect20634"
       is_visible="true"
       lpeversion="1" />
    <rect
       x="567.00165"
       y="100.4813"
       width="100.4813"
       height="225.3652"
       id="rect12673" />
    <rect
       x="337.33008"
       y="139.23837"
       width="4.3063416"
       height="308.62115"
       id="rect6378" />
  </defs>
  <g
     inkscape:label="Livello 1"
     inkscape:groupmode="layer"
     id="layer1">
    <g
       id="g38577"
       transform="matrix(2.4809337,0,0,2.4809337,-113.14284,-251.41051)">
      <text
         xml:space="preserve"
         transform="scale(0.26458333)"
         id="text6376"
         style="font-style:normal;font-weight:normal;font-size:40px;line-height:1.25;font-family:sans-serif;white-space:pre;shape-inside:url(#rect6378);fill:#000000;fill-opacity:1;stroke:none;stroke-linecap:round" />
      <text
         xml:space="preserve"
         transform="scale(0.26458333)"
         id="text12671"
         style="font-style:normal;font-weight:normal;font-size:40px;line-height:1.25;font-family:sans-serif;white-space:pre;shape-inside:url(#rect12673);fill:#000000;fill-opacity:1;stroke:none;stroke-linecap:round" />
      <g
         id="g25114"
         transform="matrix(1.0570552,0,0,1.2467295,-51.046779,-39.424783)"
         style="stroke-width:0.644581;stroke-linecap:round;stroke-miterlimit:4;stroke-dasharray:none">
        <path
           style="fill:none;stroke:#000000;stroke-width:0.644581;stroke-linecap:round;stroke-linejoin:bevel;stroke-miterlimit:4;stroke-dasharray:none;stroke-dashoffset:0;stroke-opacity:1"
           d="m 175.50128,135.755 h 23.7672"
           id="path24829" />
        <path
           style="fill:none;stroke:#000000;stroke-width:0.644581;stroke-linecap:round;stroke-linejoin:bevel;stroke-miterlimit:4;stroke-dasharray:none;stroke-dashoffset:0;stroke-opacity:1"
           d="m 185.84069,135.62073 -4.69973,31.82387"
           id="path24837" />
      </g>
      <path
         style="fill:none;stroke:#000000;stroke-width:0.79375;stroke-linecap:round;stroke-linejoin:miter;stroke-miterlimit:4;stroke-dasharray:none;stroke-opacity:1"
         d="m 47.992943,167.46957 c 2.492101,2.32907 5.56357,4.03346 8.85853,4.91571 4.328239,1.15891 8.991446,0.88462 13.24051,-0.53741 1.918935,-0.64221 3.759066,-1.51198 5.49646,-2.54938 4.568635,-2.72795 8.381898,-6.58489 11.605611,-10.8183 3.223712,-4.23341 5.892543,-8.85684 8.548159,-13.46789 1.614228,-2.80285 3.227341,-5.6069 4.763617,-8.45322 1.47661,-2.73577 2.8819,-5.51003 4.21397,-8.31902"
         id="path24863-4-0"
         sodipodi:nodetypes="csssscc"
         inkscape:original-d="m 47.992943,167.46957 c 1.03822,0.62617 3.46114,5.05139 8.85853,4.91571 4.17506,-0.10495 9.19089,0.74092 13.24051,-0.53741 1.99157,-0.62867 3.77208,-1.58619 5.49646,-2.54938 10.69742,-5.97526 15.24549,-15.50715 20.15377,-24.28619 1.57718,-2.82097 3.24965,-5.61373 4.763617,-8.45322 3.1907,-6.54276 1.73668,-3.78343 4.21397,-8.31902"
         inkscape:path-effect="#path-effect25109" />
      <path
         style="fill:none;stroke:#000000;stroke-width:0.79375;stroke-linecap:round;stroke-linejoin:miter;stroke-miterlimit:4;stroke-dasharray:none;stroke-opacity:1"
         d="m 81.846703,138.66372 c -0.113111,-0.77152 -0.367403,-1.52212 -0.74652,-2.20352 -0.206716,-0.37154 -0.449687,-0.72187 -0.70702,-1.06033 -1.987459,-2.61399 -4.896693,-4.53193 -8.103752,-5.23741 -3.207058,-0.70549 -6.686703,-0.17216 -9.488208,1.54088 -1.480181,0.90509 -2.766099,2.12491 -3.75328,3.55165 -0.772502,1.11647 -1.370949,2.3872 -1.50133,3.7386 -0.127133,1.31773 0.202299,2.66035 0.835564,3.82292 0.633264,1.16257 1.56045,2.15045 2.620158,2.94392 2.119415,1.58696 4.709982,2.38857 7.253812,3.12293 2.543831,0.73435 5.145701,1.45097 7.357568,2.9063 1.105934,0.72766 2.102501,1.63942 2.838946,2.73952 0.736446,1.10011 1.204822,2.39472 1.238362,3.71815 0.04209,1.66077 -0.595956,3.28031 -1.50132,4.67324 -1.278488,1.96699 -3.095373,3.55899 -5.145487,4.69944 -2.050114,1.14045 -4.329142,1.83928 -6.648253,2.19328 -4.306399,0.65736 -8.903827,0.0819 -12.60262,-2.21948 -1.52807,-0.95074 -2.925519,-2.24351 -3.56564,-3.92552 -0.24921,-0.65483 -0.377305,-1.35559 -0.37533,-2.05624 0.0028,-0.97854 0.262173,-1.95604 0.75065,-2.80394 0.1932,-0.33536 0.421738,-0.65084 0.68591,-0.93369 0.584037,-0.62533 1.34343,-1.08511 2.16823,-1.31279"
         id="path25494"
         sodipodi:nodetypes="csssssssccscssc"
         inkscape:original-d="m 81.846703,138.66372 c 1.26623,1.42953 -0.30105,-3.70649 -0.74652,-2.20352 -0.42945,1.44895 -0.32369,-0.5894 -0.70702,-1.06033 -3.43337,-4.21794 -13.20059,-6.05861 -17.59196,-3.69653 -1.51842,0.81673 -2.74687,2.15535 -3.75328,3.55165 -0.78587,1.09031 -1.43232,2.39817 -1.50133,3.7386 -0.54595,10.60433 23.2478,6.61454 22.14441,19.25374 -0.14224,1.6294 -0.6162,3.29566 -1.50132,4.67324 -3.47342,5.40597 -5.85181,6.66507 -11.79374,6.89272 -3.41351,-0.0695 -9.85074,-0.88276 -12.60262,-2.21948 -1.57894,-0.80017 -2.59368,-2.45024 -3.56564,-3.92552 -0.38373,-0.58244 -0.42897,-1.36164 -0.37533,-2.05624 0.0746,-0.96445 0.144,-2.0486 0.75065,-2.80394 2.17349,-2.7062 -2.27911,-1.7319 0.68591,-0.93369 2.11473,0.56931 0.59693,-2.65434 2.16823,-1.31279"
         inkscape:path-effect="#path-effect25496" />
      <path
         style="fill:none;stroke:#000000;stroke-width:0.804446;stroke-linecap:round;stroke-linejoin:miter;stroke-miterlimit:4;stroke-dasharray:none;stroke-opacity:1"
         d="m 162.56019,129.03947 c -2.46785,-2.38904 -5.54537,-4.14313 -8.85853,-5.04909 -4.32505,-1.18266 -8.99983,-0.90451 -13.24051,0.552 -1.92323,0.66055 -3.7625,1.55621 -5.49646,2.61854 -4.61082,2.82487 -8.43344,6.7975 -11.64982,11.14428 -3.21637,4.34678 -5.8625,9.08254 -8.50395,13.80084 -1.61264,2.88058 -3.22728,5.76058 -4.76362,8.68257 -1.4781,2.81123 -2.88339,5.66074 -4.21397,8.54472"
         id="path24863-4-0-9"
         sodipodi:nodetypes="csssscc"
         inkscape:original-d="m 162.56019,129.03947 c -1.03822,-0.64316 -3.46114,-5.18845 -8.85853,-5.04909 -4.17506,0.1078 -9.19089,-0.76102 -13.24051,0.552 -1.99157,0.64572 -3.77208,1.62922 -5.49646,2.61854 -10.69742,6.13738 -15.24549,15.92789 -20.15377,24.94512 -1.57718,2.8975 -3.24965,5.76604 -4.76362,8.68257 -3.1907,6.72027 -1.73668,3.88608 -4.21397,8.54472"
         inkscape:path-effect="#path-effect30297" />
      <g
         id="g34667"
         transform="matrix(0.99095658,0,0,1.0700179,0.95709484,-11.866581)">
        <path
           style="fill:none;stroke:#000000;stroke-width:0.805243;stroke-linecap:round;stroke-linejoin:miter;stroke-miterlimit:4;stroke-dasharray:none;stroke-opacity:1"
           d="m 104.7198,128.24006 1.11353,41.09327"
           id="path24871"
           inkscape:original-d="m 104.7198,128.24006 1.11353,41.09327"
           inkscape:path-effect="#path-effect24873" />
        <path
           style="fill:none;stroke:#000000;stroke-width:0.805243;stroke-linecap:round;stroke-linejoin:miter;stroke-miterlimit:4;stroke-dasharray:none;stroke-opacity:1"
           d="m 106.94686,128.24006 -1.11353,41.09327"
           id="path24871-1"
           inkscape:original-d="m 106.94686,128.24006 -1.11353,41.09327"
           inkscape:path-effect="#path-effect32157" />
        <path
           style="fill:none;stroke:#000000;stroke-width:0.79375;stroke-linecap:butt;stroke-linejoin:miter;stroke-miterlimit:4;stroke-dasharray:none;stroke-opacity:1"
           d="m 104.7198,128.24006 c 0.12268,-0.76587 0.22676,-1.29691 0.36529,-1.74788 0.56161,-1.82829 0.93297,-2.36542 1.61688,0.005 0.10505,0.3641 0.19265,0.90147 0.24489,1.74279"
           id="path32877"
           sodipodi:nodetypes="cssc" />
        <path
           style="fill:none;stroke:#000000;stroke-width:0.349345px;stroke-linecap:round;stroke-linejoin:miter;stroke-opacity:1"
           d="m 105.82802,127.7114 0.0408,2.50231"
           id="path34436" />
      </g>
      <path
         style="fill:none;stroke:#000000;stroke-width:0.79375;stroke-linecap:butt;stroke-linejoin:bevel;stroke-miterlimit:4;stroke-dasharray:none;stroke-opacity:1"
         d="m 81.846703,138.66372 c 0.171285,0.76329 0.04136,1.58999 -0.35581,2.26394 -0.397167,0.67396 -1.057426,1.18812 -1.808144,1.40807 -0.639709,0.18742 -1.341409,0.16187 -1.962328,-0.0807 -0.620919,-0.24252 -1.156304,-0.70204 -1.48179,-1.28377 -0.36236,-0.64764 -0.4578,-1.41952 -0.383852,-2.15795 0.07395,-0.73842 0.307767,-1.4512 0.570941,-2.14509 1.171865,-3.08974 2.944566,-5.9164 4.864307,-8.60608 4.019019,-5.6309 8.980524,-10.9333 15.434817,-13.42361 2.9125,-1.12375 6.172206,-1.62849 9.167336,-0.74835 0.59057,0.17354 1.16985,0.40132 1.68696,0.73522 0.51711,0.33391 0.97149,0.77885 1.25969,1.32275 0.39973,0.75439 0.45618,1.65399 0.31386,2.49579 -0.14233,0.8418 -0.47043,1.63957 -0.80898,2.42332 -0.7012,1.62328 -1.45794,3.22257 -2.26844,4.79414"
         id="path34982"
         inkscape:path-effect="#path-effect34984"
         inkscape:original-d="m 81.846703,138.66372 c 0.178552,0.5945 0.421783,2.9041 -2.163954,3.67201 -1.425593,0.42337 -3.155997,0.42192 -3.444118,-1.36442 -0.228611,-1.41738 -0.139145,-2.90489 0.187089,-4.30304 0.602351,-2.58151 3.233891,-6.77602 4.864307,-8.60608 5.802161,-6.13312 7.578249,-11.6069 15.434817,-13.42361 2.12449,-0.46811 7.374776,-1.96728 9.167336,-0.74835 1.54817,0.96841 2.83488,0.10098 2.94665,2.05797 0.0891,2.36159 0.66911,2.92865 -0.49512,4.91911 -0.36887,0.63064 -1.81204,4.22364 -2.26844,4.79414"
         sodipodi:nodetypes="csssccccsc" />
      <path
         style="fill:none;stroke:#000000;stroke-width:0.279309px;stroke-linecap:butt;stroke-linejoin:miter;stroke-opacity:1"
         d="m 106.41375,125.58955 -0.51592,1.0019"
         id="path38250"
         inkscape:path-effect="#path-effect38252"
         inkscape:original-d="m 106.41375,125.58955 -0.51592,1.0019" />
      <path
         style="fill:none;stroke:#000000;stroke-width:0.327026px;stroke-linecap:butt;stroke-linejoin:miter;stroke-opacity:1"
         d="m 105.83264,125.11892 c 0.0176,0.0566 0.0376,0.11245 0.0598,0.1674 0.0396,0.0979 0.0863,0.19292 0.11979,0.29301 0.0153,0.0457 0.0278,0.0923 0.0374,0.13954 0.003,-3.6e-4 0.005,-3.6e-4 0.008,0 0.006,8.6e-4 0.0122,0.004 0.0167,0.008 0.004,0.004 0.007,0.0104 0.008,0.0166 9e-4,0.006 -2.9e-4,0.0128 -0.003,0.0183 -0.003,0.006 -0.008,0.01 -0.0137,0.0126 0.012,0.0108 0.0201,0.0259 0.0225,0.0419 0.002,0.0138 -3e-5,0.0279 0,0.0419 5e-5,0.0242 0.006,0.0479 0.0142,0.0708 0.008,0.0229 0.0171,0.0453 0.0232,0.0687 0.007,0.0272 0.01,0.0555 0.008,0.0836"
         id="path38395"
         inkscape:path-effect="#path-effect38397"
         inkscape:original-d="m 105.83264,125.11892 c 0.0199,0.0558 0.0389,0.11289 0.0598,0.1674 0.0376,0.0983 0.0825,0.19273 0.11979,0.29301 0.0108,0.0289 0.0227,0.11178 0.0374,0.13954 0.002,0.003 0.007,-0.003 0.008,0 0.005,0.0151 0.002,0.0398 0.008,0.0558 0.005,0.0169 0.0191,0.0232 0.0225,0.0419 0.008,0.0419 -0.004,0.0139 0,0.0419 0.008,0.0535 0.0227,0.0979 0.0374,0.13954 0.008,0.0214 -0.0116,0.0836 0.008,0.0836" />
    </g>
  </g>
</svg>
